<svg width="178" height="30" viewBox="0 0 178 30" fill="none" xmlns="http://www.w3.org/2000/svg">
<path d="M6.88 29.4C4.74667 29.4 3.12 28.8 2 27.6C0.88 26.3733 0.32 24.6267 0.32 22.36V7.64C0.32 5.37333 0.88 3.64 2 2.44C3.12 1.21333 4.74667 0.599998 6.88 0.599998C9.01333 0.599998 10.64 1.21333 11.76 2.44C12.88 3.64 13.44 5.37333 13.44 7.64V10.04H9.28V7.36C9.28 5.52 8.52 4.6 7 4.6C5.48 4.6 4.72 5.52 4.72 7.36V22.68C4.72 24.4933 5.48 25.4 7 25.4C8.52 25.4 9.28 24.4933 9.28 22.68V17.2H7.08V13.2H13.44V22.36C13.44 24.6267 12.88 26.3733 11.76 27.6C10.64 28.8 9.01333 29.4 6.88 29.4ZM16.265 0.999998H22.785C25.0517 0.999998 26.705 1.53333 27.745 2.6C28.785 3.64 29.305 5.25333 29.305 7.44V9.16C29.305 12.0667 28.345 13.9067 26.425 14.68V14.76C27.4917 15.08 28.2383 15.7333 28.665 16.72C29.1183 17.7067 29.345 19.0267 29.345 20.68V25.6C29.345 26.4 29.3717 27.0533 29.425 27.56C29.4783 28.04 29.6117 28.52 29.825 29H25.345C25.185 28.5467 25.0783 28.12 25.025 27.72C24.9717 27.32 24.945 26.6 24.945 25.56V20.44C24.945 19.16 24.7317 18.2667 24.305 17.76C23.905 17.2533 23.1983 17 22.185 17H20.665V29H16.265V0.999998ZM22.265 13C23.145 13 23.7983 12.7733 24.225 12.32C24.6783 11.8667 24.905 11.1067 24.905 10.04V7.88C24.905 6.86667 24.7183 6.13333 24.345 5.68C23.9983 5.22667 23.4383 5 22.665 5H20.665V13H22.265ZM32.3978 0.999998H44.3978V5H36.7978V12.4H42.8378V16.4H36.7978V25H44.3978V29H32.3978V0.999998ZM46.9291 0.999998H58.9291V5H51.3291V12.4H57.3691V16.4H51.3291V25H58.9291V29H46.9291V0.999998ZM61.4603 0.999998H66.9803L71.2603 17.76H71.3403V0.999998H75.2603V29H70.7403L65.4603 8.56H65.3803V29H61.4603V0.999998ZM84.7306 29.4C82.624 29.4 81.0106 28.8 79.8906 27.6C78.7973 26.4 78.2506 24.7067 78.2506 22.52V7.48C78.2506 5.29333 78.7973 3.6 79.8906 2.4C81.0106 1.2 82.624 0.599998 84.7306 0.599998C86.8373 0.599998 88.4373 1.2 89.5306 2.4C90.6506 3.6 91.2106 5.29333 91.2106 7.48V10.44H87.0506V7.2C87.0506 5.46667 86.3173 4.6 84.8506 4.6C83.384 4.6 82.6506 5.46667 82.6506 7.2V22.84C82.6506 24.5467 83.384 25.4 84.8506 25.4C86.3173 25.4 87.0506 24.5467 87.0506 22.84V18.56H91.2106V22.52C91.2106 24.7067 90.6506 26.4 89.5306 27.6C88.4373 28.8 86.8373 29.4 84.7306 29.4ZM93.8431 0.999998H98.2431V25H105.483V29H93.8431V0.999998ZM107.593 0.999998H111.993V29H107.593V0.999998ZM115.288 0.999998H121.568L124.368 21.04H124.448L127.248 0.999998H133.528V29H129.368V7.8H129.288L126.088 29H122.408L119.208 7.8H119.128V29H115.288V0.999998ZM140.212 0.999998H146.172L150.732 29H146.332L145.532 23.44V23.52H140.532L139.732 29H135.652L140.212 0.999998ZM145.012 19.72L143.052 5.88H142.972L141.052 19.72H145.012ZM154.471 5H149.871V0.999998H163.471V5H158.871V29H154.471V5ZM165.601 0.999998H177.601V5H170.001V12.4H176.041V16.4H170.001V25H177.601V29H165.601V0.999998Z" fill="white"/>
</svg>
